<?xml version="1.0" encoding="UTF-8"?>
<svg id="Layer_2" data-name="Layer 2" xmlns="http://www.w3.org/2000/svg" viewBox="0 0 124.5 144.98">
  <defs>
    <style>
      .cls-1 {
        fill: #fff;
      }

      .cls-2 {
        fill: #6c42d8;
      }

      .cls-3 {
        fill: #8b5cf6;
      }
    </style>
  </defs>
  <g id="Layer_1-2" data-name="Layer 1">
    <g id="simple">
      <path class="cls-1" d="M83.69,144.98c-2.36,0-4.69-.25-6.95-.74-8.84-1.78-16.41-7.73-22.51-17.71l-.53-.85c-5.56,6.05-13.01,9.32-21.47,9.32-2.25,0-4.56-.25-6.86-.73-7.09-1.42-13.27-4.93-17.87-10.17-4.9-5.57-7.49-12.51-7.49-20.05,0-1.86.16-3.79.49-5.73l.04-.23L14.68,24.98c1.6-7.82,5.65-14.36,11.7-18.9l.22-.17C31.96,2.05,38.42,0,45.29,0c7.9,0,15.25,2.66,21.24,7.7,2.88,2.42,5.21,5.29,6.93,8.5l.8-.57c5.67-4.11,12.25-6.28,19.03-6.28,8.17,0,15.65,2.96,21.62,8.57,6.27,5.9,9.59,13.54,9.59,22.12,0,1.86-.16,3.79-.48,5.73l-.04.24-.05.24c-1.69,8.66-7.43,16.12-17.54,22.82l-8.51,5.64c-.99.66-1.27,2-.63,3l10.32,15.95c4.77,7.45,7.08,14.22,7.08,20.75,0,1.96-.2,3.94-.58,5.88-3.01,15.22-14.65,24.68-30.37,24.68Z"/>
      <path class="cls-3" d="M97,54.89l-24.32,16.13,20.61,31.87c2.9,4.52,4.35,8.36,4.35,11.52,0,.85-.09,1.71-.26,2.56-1.45,7.34-6.02,11.01-13.7,11.01-1.2,0-2.35-.13-3.46-.38-4.1-.77-7.94-4.1-11.52-9.98l-19.33-31.1c-.6,4.18-1.24,8.36-1.92,12.54-1.11,5.63-2.65,9.94-4.61,12.93-2.56,4.01-6.1,6.02-10.62,6.02-1.11,0-2.26-.13-3.46-.38-3.5-.68-6.34-2.26-8.51-4.74-2.18-2.47-3.26-5.42-3.26-8.83,0-.94.09-1.92.26-2.94L31.34,28.39c.77-3.75,2.52-6.66,5.25-8.7,2.47-1.79,5.38-2.69,8.7-2.69,3.92,0,7.36,1.24,10.3,3.71,2.94,2.48,4.42,5.8,4.42,9.98,0,1.02-.13,2.09-.38,3.2l-2.94,15.23,27.52-19.71c2.82-2.05,5.84-3.07,9.09-3.07,3.84,0,7.17,1.32,9.98,3.97,2.82,2.65,4.22,5.89,4.22,9.73,0,.94-.09,1.92-.26,2.94-.77,3.93-4.18,7.89-10.24,11.9Z"/>
      <path class="cls-2" d="M75.34,75.13c-6.19-.56-12.41-.85-18.62-.95-11.59-.2-23.24.24-34.66,2.05l-4.81,24.86c-.17,1.03-.25,2.01-.25,2.95,0,3.41,1.09,6.36,3.26,8.83,2.18,2.48,5.01,4.05,8.51,4.74,1.2.25,2.35.38,3.46.38,4.52,0,8.06-2,10.62-6.02,1.97-2.98,3.5-7.29,4.61-12.92.68-4.18,1.32-8.37,1.92-12.55l19.33,31.11c3.58,5.88,7.42,9.21,11.52,9.98,1.11.26,2.26.38,3.46.38,7.68,0,12.24-3.67,13.69-11,.17-.86.26-1.71.26-2.56,0-3.16-1.45-7-4.35-11.52l-17.95-27.76Z"/>
    </g>
  </g>
</svg>