<?xml version="1.0" encoding="UTF-8"?>
<svg id="Layer_2" data-name="Layer 2" xmlns="http://www.w3.org/2000/svg" viewBox="0 0 318 161.38">
  <defs>
    <style>
      .cls-1 {
        fill: #fff;
      }

      .cls-2 {
        fill: #6c42d8;
      }

      .cls-3 {
        fill: #8b5cf6;
      }
    </style>
  </defs>
  <g id="Layer_1-2" data-name="Layer 1">
    <g id="kiss">
      <g>
        <g id="stroke">
          <path class="cls-1" d="M258.04,145.66c-9.98,0-19.63-1.83-28.68-5.43l-.11-.04c-21.04-8.53-24.18-22.92-24.18-30.73s2.78-15.22,8.03-21.11c.67-.75,1.36-1.45,2.07-2.11-8.06-9.59-9.71-20.37-9.71-27.6,0-15.06,5.93-28.09,17.15-37.69,10.06-8.78,22.32-13.23,36.46-13.23,8.35,0,16.84,1.92,25.23,5.7,18.9,8.35,21.72,21.73,21.72,28.97s-2.07,13.29-6.01,18.69c6.68,6.78,12.66,17.25,12.66,33.02s-6.05,28.6-17.5,38.29c-10.29,8.8-22.79,13.27-37.13,13.27Z"/>
          <path class="cls-1" d="M83.69,149.24c-2.36,0-4.69-.25-6.95-.74-8.84-1.78-16.41-7.73-22.51-17.71l-.53-.85c-5.56,6.05-13.01,9.32-21.47,9.32-2.25,0-4.56-.25-6.86-.73-7.09-1.42-13.27-4.93-17.87-10.17-4.9-5.57-7.49-12.51-7.49-20.05,0-1.86.16-3.79.49-5.73l.04-.23L14.68,29.25c1.6-7.82,5.65-14.36,11.7-18.9l.22-.17c5.35-3.87,11.81-5.92,18.68-5.92,7.9,0,15.25,2.66,21.24,7.7,2.88,2.42,5.21,5.29,6.93,8.5l.8-.57c5.67-4.11,12.25-6.28,19.03-6.28,8.17,0,15.65,2.96,21.62,8.57,6.27,5.9,9.59,13.54,9.59,22.12,0,1.86-.16,3.79-.48,5.73l-.04.24-.05.24c-1.69,8.66-7.43,16.12-17.54,22.82l-8.51,5.64c-.99.66-1.27,2-.63,3l10.32,15.95c4.77,7.45,7.08,14.22,7.08,20.75,0,1.96-.2,3.94-.58,5.88-3.01,15.22-14.65,24.68-30.37,24.68Z"/>
          <path class="cls-1" d="M186.61,160.66c-9.98,0-19.63-1.83-28.68-5.43l-.11-.04c-21.04-8.53-24.18-22.92-24.18-30.73s2.78-15.22,8.03-21.11c.67-.75,1.36-1.45,2.07-2.11-8.06-9.59-9.71-20.37-9.71-27.6,0-15.06,5.93-28.09,17.15-37.69,10.06-8.78,22.32-13.23,36.46-13.23,8.35,0,16.84,1.92,25.23,5.7,18.9,8.35,21.72,21.73,21.72,28.97s-2.07,13.29-6.01,18.69c6.68,6.78,12.66,17.25,12.66,33.02s-6.05,28.6-17.51,38.29c-10.29,8.8-22.78,13.27-37.13,13.27Z"/>
          <path class="cls-1" d="M125.31,135.38c-8.06,0-15.49-2.8-21.49-8.1-6.61-5.83-10.1-13.82-10.1-23.11,0-1.42.07-2.88.2-4.33l.05-.58,11.5-72.51c1.36-8.19,5.28-15.07,11.33-19.9,5.49-4.48,12.23-6.85,19.52-6.85,8.06,0,15.49,2.8,21.49,8.09,6.61,5.84,10.11,13.83,10.11,23.12,0,1.42-.07,2.88-.2,4.33l-.05.58-11.51,72.52c-1.37,8.19-5.29,15.07-11.34,19.9-5.49,4.48-12.23,6.84-19.51,6.84Z"/>
        </g>
        <g id="text">
          <path class="cls-3" d="M258.04,128.66c-7.85,0-15.32-1.41-22.4-4.22-9.05-3.67-13.57-8.66-13.57-14.98,0-3.75,1.24-7.02,3.71-9.79,2.47-2.77,5.72-4.16,9.73-4.16,2.56,0,6.16.83,10.82,2.5,4.65,1.66,8.21,2.5,10.69,2.5,5.55,0,8.32-2.05,8.32-6.14,0-1.45-1.88-2.82-5.63-4.1-3.16-.85-8.06-2.35-14.72-4.48-15.02-5.12-22.53-14.16-22.53-27.14,0-10.15,3.75-18.43,11.26-24.83,6.91-6.06,15.36-9.09,25.34-9.09,5.97,0,12.07,1.41,18.3,4.22,7.76,3.41,11.65,7.89,11.65,13.44,0,3.76-1.2,7-3.58,9.73-2.48,2.99-5.76,4.48-9.86,4.48-1.96,0-4.8-.64-8.51-1.92-3.71-1.28-6.55-1.92-8.51-1.92-3.76,0-5.63,1.2-5.63,3.58,0,.85,1.83,1.88,5.5,3.07,12.97,4.1,21.46,7.51,25.47,10.24,7.85,5.46,11.78,13.61,11.78,24.45s-3.84,18.86-11.52,25.34c-7.17,6.14-15.87,9.22-26.11,9.22Z"/>
          <path class="cls-3" d="M186.61,143.66c-7.85,0-15.32-1.41-22.4-4.22-9.05-3.67-13.57-8.66-13.57-14.98,0-3.75,1.24-7.02,3.71-9.79,2.47-2.77,5.72-4.16,9.73-4.16,2.56,0,6.16.83,10.82,2.5,4.65,1.66,8.21,2.5,10.69,2.5,5.55,0,8.32-2.05,8.32-6.14,0-1.45-1.88-2.82-5.63-4.1-3.16-.85-8.06-2.35-14.72-4.48-15.02-5.12-22.53-14.16-22.53-27.14,0-10.15,3.75-18.43,11.26-24.83,6.91-6.06,15.36-9.09,25.34-9.09,5.97,0,12.07,1.41,18.3,4.22,7.76,3.41,11.65,7.89,11.65,13.44,0,3.76-1.2,7-3.58,9.73-2.48,2.99-5.76,4.48-9.86,4.48-1.96,0-4.8-.64-8.51-1.92s-6.55-1.92-8.51-1.92c-3.76,0-5.63,1.2-5.63,3.58,0,.85,1.83,1.88,5.5,3.07,12.97,4.1,21.46,7.51,25.47,10.24,7.85,5.46,11.78,13.61,11.78,24.45s-3.84,18.86-11.52,25.34c-7.17,6.14-15.87,9.22-26.11,9.22Z"/>
          <path class="cls-3" d="M139.39,105.83c-.68,4.1-2.43,7.25-5.25,9.47-2.48,2.05-5.42,3.07-8.83,3.07-3.93,0-7.34-1.28-10.24-3.84-2.9-2.56-4.35-6.02-4.35-10.37,0-.94.04-1.88.13-2.82l11.39-71.81c.68-4.1,2.43-7.25,5.25-9.47,2.47-2.05,5.42-3.07,8.83-3.07,3.92,0,7.34,1.28,10.24,3.84,2.9,2.56,4.35,6.02,4.35,10.37,0,.94-.04,1.88-.13,2.82l-11.39,71.81Z"/>
          <path class="cls-3" d="M97,59.15l-24.32,16.13,20.61,31.87c2.9,4.52,4.35,8.36,4.35,11.52,0,.85-.09,1.71-.26,2.56-1.45,7.34-6.02,11.01-13.7,11.01-1.2,0-2.35-.13-3.46-.38-4.1-.77-7.94-4.1-11.52-9.98l-19.33-31.1c-.6,4.18-1.24,8.36-1.92,12.54-1.11,5.63-2.65,9.94-4.61,12.93-2.56,4.01-6.1,6.02-10.62,6.02-1.11,0-2.26-.13-3.46-.38-3.5-.68-6.34-2.26-8.51-4.74-2.18-2.47-3.26-5.42-3.26-8.83,0-.94.09-1.92.26-2.94l14.08-72.7c.77-3.75,2.52-6.66,5.25-8.7,2.47-1.79,5.38-2.69,8.7-2.69,3.92,0,7.36,1.24,10.3,3.71,2.94,2.48,4.42,5.8,4.42,9.98,0,1.02-.13,2.09-.38,3.2l-2.94,15.23,27.52-19.71c2.82-2.05,5.84-3.07,9.09-3.07,3.84,0,7.17,1.32,9.98,3.97,2.82,2.65,4.22,5.89,4.22,9.73,0,.94-.09,1.92-.26,2.94-.77,3.93-4.18,7.89-10.24,11.9Z"/>
        </g>
      </g>
    </g>
    <g id="shadow">
      <path class="cls-2" d="M75.34,79.4c-6.19-.56-12.41-.85-18.62-.95-11.59-.2-23.24.24-34.66,2.05l-4.81,24.86c-.17,1.03-.25,2.01-.25,2.95,0,3.41,1.09,6.36,3.26,8.83,2.18,2.48,5.01,4.05,8.51,4.74,1.2.25,2.35.38,3.46.38,4.52,0,8.06-2,10.62-6.02,1.97-2.98,3.5-7.29,4.61-12.92.68-4.18,1.32-8.37,1.92-12.55l19.33,31.11c3.58,5.88,7.42,9.21,11.52,9.98,1.11.26,2.26.38,3.46.38,7.68,0,12.24-3.67,13.69-11,.17-.86.26-1.71.26-2.56,0-3.16-1.45-7-4.35-11.52l-17.95-27.76Z"/>
      <path class="cls-2" d="M113.14,86.93l-2.29,14.43c-.09.94-.13,1.87-.13,2.81,0,4.35,1.45,7.81,4.35,10.37s6.31,3.84,10.24,3.84c3.41,0,6.36-1.02,8.83-3.07,2.82-2.22,4.57-5.38,5.25-9.47l1.2-7.57c-8.87-3.84-17.67-7.99-26.77-11.11-.23-.08-.45-.15-.68-.23Z"/>
      <path class="cls-2" d="M289.7,75.04c-1.47.18-2.94.41-4.4.67-13.2,2.38-28.43,4.9-41.54,9.64.4.15.81.29,1.22.43,6.66,2.13,11.56,3.63,14.72,4.48,3.75,1.28,5.63,2.65,5.63,4.1,0,4.09-2.77,6.14-8.32,6.14-2.47,0-6.04-.83-10.69-2.5-4.65-1.66-8.25-2.49-10.81-2.49-4.01,0-7.26,1.39-9.73,4.16-.84.93-1.52,1.93-2.07,2.98-.42-2.5-1.1-4.82-2.04-6.96-9.58,4.87-18.99,9.48-28.96,11.74.79.62,1.19,1.27,1.19,1.93,0,4.09-2.77,6.14-8.32,6.14-2.48,0-6.04-.83-10.69-2.5-4.65-1.66-8.25-2.49-10.81-2.49-4.02,0-7.26,1.39-9.73,4.16-2.48,2.77-3.71,6.04-3.71,9.79,0,6.32,4.52,11.31,13.56,14.98,7.09,2.81,14.55,4.22,22.4,4.22,10.24,0,18.95-3.07,26.12-9.22,6.03-5.09,9.68-11.4,10.98-18.92,2.04,3.54,6.01,6.51,11.94,8.92,7.08,2.81,14.54,4.22,22.4,4.22,10.24,0,18.94-3.07,26.11-9.22,7.68-6.48,11.52-14.93,11.52-25.34,0-7.72-1.99-14.07-5.97-19.06Z"/>
    </g>
    <g id="keep_it_simple_sir_text" data-name="keep it simple sir text">
      <g id="stroke-2" data-name="stroke">
        <path class="cls-1" d="M77.34,156.9c-3.12,0-5.63-1.87-6.7-5l-5.6-16.29c-.29-.84-.44-1.7-.44-2.56,0-1.99.76-3.76,2.21-5.12,1.39-1.26,3.06-1.9,4.87-1.9,2.9,0,5.27,1.6,6.46,4.31,1.25-.69,2.47-.84,3.32-.84,1.48,0,2.89.49,4.08,1.41,1.12.87,1.91,1.96,2.36,3.25.26.79.39,1.55.39,2.31,0,1.17-.31,2.33-.91,3.45l2.03,1.2c2.22,1.29,3.51,3.53,3.51,6.13,0,3.05-1.74,5.49-4.66,6.52l-.13.04c-.68.21-1.39.32-2.09.32-.85,0-1.72-.17-2.6-.51-.33.51-.73.98-1.2,1.4-1.37,1.23-3.06,1.88-4.89,1.88Z"/>
        <path class="cls-1" d="M96.77,156.03c-2.69,0-5.14-.82-7.28-2.43-2.08-1.57-3.59-3.7-4.49-6.33-.48-1.4-.72-2.87-.72-4.37,0-2.54.67-4.88,2-6.96,1.47-2.29,3.53-3.9,6.13-4.8,1.27-.44,2.59-.67,3.91-.67,2.69,0,5.19.86,7.42,2.55,2.09,1.55,3.56,3.53,4.35,5.86.28.76.43,1.62.43,2.46,0,.18,0,.36-.02.53.78,1.1,1.2,2.4,1.2,3.75,0,2.31-1.13,4.51-3.36,6.52-1.58,1.43-3.34,2.5-5.22,3.16-1.48.49-2.92.73-4.35.73Z"/>
        <path class="cls-1" d="M114.19,156.03c-2.69,0-5.14-.82-7.28-2.43-2.08-1.57-3.59-3.7-4.49-6.33-.48-1.4-.72-2.87-.72-4.37,0-2.54.67-4.88,2-6.96,1.47-2.29,3.53-3.9,6.13-4.8,1.27-.44,2.59-.67,3.91-.67,2.69,0,5.19.86,7.42,2.55,2.09,1.55,3.56,3.53,4.35,5.86.28.76.43,1.62.43,2.46,0,.18,0,.36-.02.53.78,1.1,1.2,2.4,1.2,3.75,0,2.31-1.13,4.51-3.36,6.52-1.58,1.43-3.34,2.5-5.22,3.16-1.48.49-2.92.73-4.35.73Z"/>
        <path class="cls-1" d="M125.72,161.38c-1.94,0-3.69-.71-5.04-2.07-1.07-1.1-2.24-2.96-2-5.83l1.46-16.64c.2-2.01,1.04-3.68,2.44-4.9,1.31-1.16,2.94-1.78,4.71-1.78,1.07,0,2.07.22,2.96.63.79-.2,1.61-.29,2.46-.29.3,0,.61.01.92.04,3.48.32,6.3,1.97,8.18,4.78,1.5,2.22,2.27,4.88,2.27,7.88,0,3.25-.99,6.14-2.94,8.59-2.23,2.78-5.2,4.27-8.62,4.34-.37,1.38-1.09,2.55-2.1,3.47-1.36,1.18-2.96,1.77-4.71,1.77Z"/>
        <path class="cls-1" d="M153.56,155.93c-1.91,0-3.62-.7-4.94-2.02-1.29-1.29-2.03-2.97-2.14-4.88l-.56-10.76c-.05-1.01.07-1.97.35-2.84-.56-.98-.87-2.08-.92-3.25-.12-1.9.55-3.74,1.94-5.23,1.33-1.43,3.04-2.25,4.94-2.37.2,0,.3-.01.41-.01,1.8,0,3.49.64,4.86,1.85,1.49,1.31,2.35,3.03,2.47,4.98.05,1.2-.15,2.32-.59,3.34.37.84.59,1.77.65,2.76l.56,10.77c.11,1.92-.45,3.7-1.64,5.14-1.26,1.51-2.98,2.38-4.99,2.5-.2,0-.3.01-.41.01Z"/>
        <path class="cls-1" d="M160.08,155.67c-1.81,0-3.47-.63-4.78-1.82-1.47-1.3-2.3-3.17-2.3-5.24,0-.58.07-1.19.22-1.81l1.25-5.37c-1-1.15-1.55-2.65-1.55-4.36s.61-3.35,1.77-4.68c.67-.77,1.48-1.35,2.38-1.73.47-1.16,1.22-2.16,2.21-2.93,1.22-.96,2.7-1.46,4.28-1.46,1.82,0,3.49.65,4.85,1.88,1.46,1.33,2.23,3.12,2.23,5.17,0,.04,0,.08,0,.12,1.31,1.2,2.05,2.86,2.05,4.78,0,.54-.06,1.08-.17,1.62-.58,2.49-2.16,4.24-4.31,4.96l-1.19,5.18c-.53,2.23-1.69,3.5-2.57,4.19-1.25.98-2.75,1.49-4.35,1.49Z"/>
        <path class="cls-1" d="M184.16,156.09c-1.82,0-3.46-.3-4.88-.9-2.31-.93-3.9-2.7-4.42-4.94-.1-.39-.16-.89-.16-1.4,0-.99.19-1.94.57-2.81-.97-1.22-1.44-2.49-1.66-3.43l-.02-.11c-.15-.71-.22-1.44-.22-2.15,0-2.38.86-4.57,2.5-6.35,1.51-1.65,3.47-2.75,5.82-3.29.84-.2,1.77-.3,2.74-.3,1.89,0,3.6.38,5.09,1.12,2.53,1.3,3.95,3.56,3.95,6.21,0,.69-.09,1.35-.28,1.99,1.4,1.42,2,3,2.25,4.12.16.75.24,1.47.24,2.18,0,2.38-.88,4.59-2.56,6.41-1.56,1.68-3.58,2.82-6.02,3.37-.89.2-1.84.3-2.93.3Z"/>
        <path class="cls-1" d="M195.28,155.93c-1.91,0-3.62-.7-4.94-2.02-1.29-1.29-2.03-2.97-2.14-4.88l-.56-10.76c-.05-1.01.07-1.97.35-2.84-.56-.98-.87-2.08-.92-3.25-.12-1.9.55-3.74,1.94-5.23,1.33-1.43,3.04-2.25,4.94-2.37.2,0,.3-.01.41-.01,1.8,0,3.49.64,4.86,1.85,1.49,1.31,2.35,3.03,2.47,4.98.05,1.2-.15,2.32-.59,3.34.37.84.59,1.77.65,2.76l.56,10.77c.11,1.92-.45,3.7-1.64,5.14-1.26,1.51-2.98,2.38-4.99,2.5-.2,0-.3.01-.41.01Z"/>
        <path class="cls-1" d="M204.04,157.77c-1.61,0-3.11-.52-4.34-1.52-1.27-1-2.16-2.44-2.57-4.15l-2.42-10.51c-.14-.54-.21-1.16-.21-1.76,0-2.03.77-3.83,2.23-5.2,1.35-1.27,3.03-1.93,4.87-1.93.23,0,.47.01.7.04,1.59-1,3.42-1.52,5.41-1.52.68,0,1.35.06,2,.19,1.87-1.44,4.11-2.18,6.6-2.18,2.32,0,4.39.69,6.17,2.07,1.93,1.52,3.18,3.58,3.75,6.15l1.78,7.59.02.09c.1.54.15,1.08.15,1.6,0,1.6-.49,3.1-1.41,4.34-.98,1.32-2.39,2.21-4.06,2.59-.51.12-1.06.18-1.61.18-1.06,0-2.06-.23-2.98-.67-.22.26-.45.51-.71.75-1.35,1.23-3.02,1.88-4.82,1.88-1.06,0-2.08-.22-3-.66-.22.27-.46.52-.72.76-1.35,1.23-3.02,1.88-4.82,1.88Z"/>
        <path class="cls-1" d="M226.58,161.38c-1.94,0-3.69-.71-5.04-2.07-1.07-1.1-2.24-2.96-2-5.83l1.46-16.64c.2-2.01,1.04-3.68,2.44-4.9,1.31-1.16,2.94-1.78,4.71-1.78,1.07,0,2.07.22,2.96.63.79-.2,1.61-.29,2.46-.29.3,0,.61.01.92.04,3.48.32,6.3,1.97,8.18,4.78,1.5,2.22,2.27,4.88,2.27,7.88,0,3.25-.99,6.14-2.94,8.59-2.23,2.78-5.2,4.27-8.62,4.34-.37,1.38-1.09,2.55-2.1,3.47-1.36,1.18-2.96,1.77-4.71,1.77Z"/>
        <path class="cls-1" d="M244.25,155.89c-1.9,0-3.62-.69-4.97-1.99l-.09-.09c-1.46-1.5-2.15-3.46-1.99-5.67l1.2-17.22c.16-2.02.96-3.73,2.34-4.98,1.31-1.18,2.94-1.8,4.73-1.8,1.9,0,3.62.69,4.97,1.99l.09.09c1.46,1.5,2.14,3.46,1.99,5.67l-1.2,17.22c-.2,2.55-1.36,4.09-2.3,4.94-1.32,1.2-2.97,1.83-4.77,1.83Z"/>
        <path class="cls-1" d="M257.01,156.03c-2.69,0-5.14-.82-7.28-2.43-2.08-1.57-3.59-3.7-4.49-6.33-.48-1.4-.72-2.87-.72-4.37,0-2.54.67-4.88,2-6.96,1.47-2.29,3.53-3.9,6.13-4.8,1.27-.44,2.59-.67,3.91-.67,2.69,0,5.19.86,7.42,2.55,2.09,1.55,3.56,3.53,4.35,5.86.28.76.43,1.62.43,2.46,0,.18,0,.36-.02.53.78,1.1,1.2,2.4,1.2,3.75,0,2.31-1.13,4.51-3.36,6.52-1.58,1.43-3.34,2.5-5.22,3.16-1.48.49-2.92.73-4.35.73Z"/>
        <path class="cls-1" d="M266.87,159.6c-1.62,0-3.16-.56-4.45-1.62-1.49-1.23-2.35-2.89-2.48-4.8-.08-1.46.37-3.11,1.51-5.57l.09-.18c.4-.77.81-1.56,1.21-2.35.54-1.12,1.44-2.1,2.63-2.83.96-.58,1.97-.92,3.02-1.02.23-.02.4-.02.57-.02,1.61,0,3.15.55,4.44,1.6,1.51,1.23,2.39,2.9,2.52,4.82v.12c.05,1.07-.18,2.19-.68,3.32-.34.9-.86,2.09-1.58,3.66l-.06.12-.06.12c-1.96,3.58-4.44,4.47-6.17,4.59-.16.01-.33.02-.5.02Z"/>
        <path class="cls-1" d="M287.39,156.09c-1.82,0-3.46-.3-4.88-.9-2.32-.93-3.9-2.7-4.42-4.95-.1-.38-.16-.88-.16-1.4,0-.99.19-1.94.57-2.81-.97-1.22-1.44-2.49-1.66-3.43l-.03-.12c-.15-.71-.22-1.44-.22-2.15,0-2.38.86-4.57,2.5-6.35,1.51-1.65,3.47-2.75,5.82-3.29.84-.2,1.77-.3,2.74-.3,1.89,0,3.6.38,5.09,1.12,2.53,1.3,3.95,3.56,3.95,6.21,0,.69-.09,1.35-.28,1.99,1.4,1.42,2,3,2.25,4.12.16.75.24,1.47.24,2.18,0,2.38-.88,4.59-2.56,6.41-1.55,1.68-3.58,2.82-6.02,3.37-.89.2-1.84.3-2.93.3Z"/>
        <path class="cls-1" d="M298.52,155.93c-1.91,0-3.62-.7-4.94-2.02-1.29-1.29-2.03-2.98-2.14-4.89l-.56-10.75c-.05-1.01.07-1.97.35-2.85-.56-.98-.87-2.08-.92-3.25-.12-1.9.55-3.73,1.93-5.23,1.33-1.43,3.04-2.25,4.94-2.37.2,0,.3-.01.41-.01,1.8,0,3.49.64,4.86,1.85,1.49,1.31,2.35,3.03,2.47,4.97.05,1.2-.15,2.32-.59,3.34.37.84.59,1.77.65,2.76l.56,10.77c.12,1.91-.45,3.7-1.64,5.14-1.26,1.51-2.98,2.38-4.99,2.5-.2,0-.3.01-.41.01Z"/>
        <path class="cls-1" d="M305.34,155.75c-1.96,0-3.71-.74-5.09-2.13-1-1.01-2.15-2.81-1.95-5.64l.76-10.95c.12-2.02,1.06-3.82,2.63-5.04,1.29-1.01,2.88-1.54,4.58-1.54,1,0,1.95.18,2.8.53.59-.13,1.2-.2,1.83-.2.17,0,.34,0,.51.01,1.94.13,3.58.94,4.81,2.34,1.27,1.44,1.89,3.27,1.77,5.3-.15,2.02-1.11,3.72-2.72,4.86-.61.45-1.45.85-2.58,1.22l-.3,4.43c-.19,2.57-1.36,4.12-2.3,4.98-1.32,1.2-2.96,1.83-4.74,1.83Z"/>
      </g>
      <g id="text-2" data-name="text">
        <path class="cls-2" d="M86.92,149.99c-.3.09-.6.14-.9.14-.65,0-1.4-.26-2.24-.78l-4.28-2.69c.24.62.49,1.27.73,1.96.19.43.28.86.28,1.29,0,.86-.32,1.57-.95,2.14-.64.57-1.37.85-2.21.85-1.42,0-2.39-.77-2.91-2.3l-5.6-16.3c-.15-.43-.22-.85-.22-1.26,0-.88.32-1.61.95-2.21.6-.54,1.31-.81,2.13-.81,1.44,0,2.42.77,2.94,2.3l2.24,6.55,1.68-3.3c.71-1.38,1.68-2.07,2.91-2.07.6,0,1.14.19,1.64.57.49.38.83.84,1.02,1.39.11.34.17.67.17,1.01,0,.52-.16,1.06-.48,1.62l-1.85,3.28,5.4,3.19c1.03.6,1.54,1.49,1.54,2.69,0,1.36-.66,2.28-1.99,2.74Z"/>
        <path class="cls-2" d="M99.8,151.53c-1.01.34-2.02.5-3.02.5-1.81,0-3.44-.54-4.87-1.62-1.44-1.08-2.47-2.56-3.11-4.42-.34-.99-.5-2.02-.5-3.08,0-1.77.46-3.38,1.37-4.82.97-1.51,2.32-2.57,4.06-3.16.86-.3,1.73-.45,2.6-.45,1.81,0,3.48.58,5.01,1.74,1.46,1.08,2.44,2.4,2.97,3.95.15.41.22.8.22,1.18,0,1.16-.65,1.96-1.96,2.41l-6.64,2.3c.34.17.72.25,1.15.25.37,0,.78-.07,1.23-.22.58-.21,1.24-.72,1.97-1.54.74-.82,1.34-1.32,1.81-1.48.26-.07.52-.11.78-.11.75,0,1.4.27,1.97.8.57.53.85,1.16.85,1.89,0,1.14-.68,2.32-2.04,3.56-1.19,1.08-2.48,1.87-3.86,2.35ZM95.51,140.08c-.73.26-1.18.77-1.34,1.51l3.36-1.18c-.37-.32-.79-.48-1.26-.48-.24,0-.49.05-.76.14Z"/>
        <path class="cls-2" d="M117.21,151.53c-1.01.34-2.02.5-3.02.5-1.81,0-3.44-.54-4.87-1.62-1.44-1.08-2.47-2.56-3.11-4.42-.34-.99-.5-2.02-.5-3.08,0-1.77.46-3.38,1.37-4.82.97-1.51,2.32-2.57,4.06-3.16.86-.3,1.73-.45,2.6-.45,1.81,0,3.48.58,5.01,1.74,1.46,1.08,2.44,2.4,2.97,3.95.15.41.22.8.22,1.18,0,1.16-.65,1.96-1.96,2.41l-6.64,2.3c.34.17.72.25,1.15.25.37,0,.78-.07,1.23-.22.58-.21,1.24-.72,1.97-1.54.74-.82,1.34-1.32,1.81-1.48.26-.07.52-.11.78-.11.75,0,1.4.27,1.97.8.57.53.85,1.16.85,1.89,0,1.14-.68,2.32-2.04,3.56-1.19,1.08-2.48,1.87-3.86,2.35ZM112.93,140.08c-.73.26-1.18.77-1.34,1.51l3.36-1.18c-.37-.32-.79-.48-1.26-.48-.24,0-.49.05-.76.14Z"/>
        <path class="cls-2" d="M129.06,151.33l-.25,3.02c-.09.97-.45,1.74-1.06,2.3-.56.49-1.23.73-2.02.73-.88,0-1.61-.3-2.21-.9-.65-.67-.93-1.56-.84-2.66l1.46-16.63c.09-.95.46-1.7,1.09-2.24.58-.52,1.27-.78,2.07-.78,1.01,0,1.79.39,2.35,1.18,1.06-.65,2.29-.92,3.67-.81,2.24.21,3.97,1.21,5.18,3.02,1.06,1.57,1.6,3.45,1.6,5.66,0,2.33-.69,4.37-2.07,6.1-1.51,1.89-3.42,2.83-5.71,2.83-1.16,0-2.24-.27-3.25-.81ZM132.14,140.25c-.73-.06-1.32.26-1.76.95-.41.62-.62,1.36-.62,2.24,0,.77.15,1.41.45,1.93.35.58.83.9,1.43.95.58.04,1.09-.21,1.54-.74.45-.53.71-1.23.78-2.09.07-.88-.06-1.62-.41-2.24-.35-.62-.82-.95-1.41-1.01Z"/>
        <path class="cls-2" d="M152.86,135.21c-.91.04-1.72-.26-2.41-.9-.69-.63-1.05-1.4-1.09-2.3-.06-.88.23-1.66.87-2.34.63-.68,1.39-1.05,2.27-1.11.9-.04,1.69.25,2.38.85.69.61,1.06,1.35,1.12,2.23.04.91-.25,1.72-.85,2.42-.61.7-1.37,1.08-2.28,1.13ZM153.72,151.92c-.91.04-1.67-.24-2.27-.84-.6-.6-.92-1.36-.98-2.3l-.56-10.72c-.06-1.06.24-1.92.9-2.58.58-.58,1.3-.87,2.16-.87.8,0,1.49.25,2.07.76.62.58.95,1.36,1.01,2.35l.56,10.75c.06.93-.19,1.73-.73,2.38-.54.65-1.26,1.01-2.16,1.06Z"/>
        <path class="cls-2" d="M160.25,134.2l.31-1.32c.19-.86.58-1.52,1.18-1.99.52-.41,1.13-.62,1.82-.62.82,0,1.54.28,2.16.84.62.56.92,1.3.92,2.21,0,.3-.04.61-.11.92l-.31,1.32c1.64.37,2.46,1.26,2.46,2.66,0,.26-.03.52-.08.78-.34,1.44-1.24,2.16-2.72,2.16-.3,0-.61-.04-.92-.11l-1.85,8.04c-.21.86-.58,1.5-1.13,1.93-.55.43-1.18.64-1.89.64-.82,0-1.52-.26-2.1-.78-.65-.58-.98-1.33-.98-2.27,0-.28.04-.58.11-.9l1.88-8.04c-1.38-.39-2.07-1.26-2.07-2.6,0-.77.26-1.45.78-2.04.52-.6,1.19-.9,1.99-.9.19,0,.37.02.56.06Z"/>
        <path class="cls-2" d="M186.2,151.89c-.58.13-1.26.2-2.04.2-1.29,0-2.4-.2-3.33-.59-1.16-.47-1.85-1.19-2.07-2.16-.04-.15-.06-.32-.06-.5,0-.62.16-1.18.48-1.68.39-.65.94-1.05,1.65-1.2.26-.07.53-.11.81-.11.39,0,.91.09,1.57.28.65.19,1.14.28,1.46.28.19,0,.37-.02.56-.06.13-.02.25-.04.36-.06.11-.02.16-.07.14-.17-.02-.06-.11-.08-.28-.08-.32,0-.53,0-.64-.03-.54-.06-1.4-.19-2.58-.39-2.67-.58-4.25-1.89-4.73-3.95-.09-.45-.14-.9-.14-1.34,0-1.38.48-2.59,1.44-3.64.96-1.05,2.22-1.75,3.77-2.1.56-.13,1.18-.2,1.85-.2,1.27,0,2.37.23,3.3.7,1.16.6,1.74,1.47,1.74,2.63,0,.75-.24,1.4-.73,1.96-.49.56-1.1.84-1.85.84-.3,0-.77-.07-1.41-.22s-1.12-.22-1.41-.22c-.15,0-.3.02-.45.06-.21.06-.3.1-.28.14,0,.06.09.09.28.11.34,0,.54,0,.62.03.54.06,1.41.18,2.6.36,2.67.6,4.24,1.91,4.7,3.95.09.43.14.86.14,1.29,0,1.38-.5,2.61-1.5,3.7-1,1.08-2.32,1.81-3.96,2.18Z"/>
        <path class="cls-2" d="M194.58,135.21c-.91.04-1.72-.26-2.41-.9-.69-.63-1.05-1.4-1.09-2.3-.06-.88.23-1.66.87-2.34.63-.68,1.39-1.05,2.27-1.11.9-.04,1.69.25,2.38.85.69.61,1.06,1.35,1.12,2.23.04.91-.25,1.72-.85,2.42-.61.7-1.37,1.08-2.28,1.13ZM195.44,151.92c-.91.04-1.67-.24-2.27-.84-.6-.6-.92-1.36-.98-2.3l-.56-10.72c-.06-1.06.24-1.92.9-2.58.58-.58,1.3-.87,2.16-.87.8,0,1.49.25,2.07.76.62.58.95,1.36,1.01,2.35l.56,10.75c.06.93-.19,1.73-.73,2.38-.54.65-1.26,1.01-2.16,1.06Z"/>
        <path class="cls-2" d="M221.82,149.74c-.24.06-.49.08-.73.08-.73,0-1.36-.24-1.9-.71-.54-.48-.91-1.11-1.09-1.89l-1.57-6.83c-.22-.95-.67-1.43-1.34-1.43-.88,0-1.32.46-1.32,1.37,0,.19.03.4.08.64l1.6,6.83c.06.32.08.63.08.92,0,.91-.31,1.65-.92,2.21-.62.56-1.33.84-2.13.84-.71,0-1.33-.21-1.85-.62-.58-.47-.97-1.12-1.18-1.96l-1.57-6.86c-.22-.95-.67-1.43-1.34-1.43-.43,0-.77.14-1.04.42-.19.21-.28.49-.28.84,0,.22.03.48.08.76l1.6,6.86c.06.32.08.63.08.92,0,.91-.31,1.65-.92,2.21-.62.56-1.33.84-2.13.84-.71,0-1.33-.21-1.85-.64-.58-.45-.97-1.1-1.18-1.96l-2.41-10.47c-.07-.3-.11-.59-.11-.87,0-.91.33-1.68.98-2.3.6-.56,1.31-.84,2.13-.84.58,0,1.1.16,1.57.48,1.21-1.31,2.73-1.96,4.54-1.96,1.08,0,2.09.26,3.02.78,1.44-1.85,3.29-2.77,5.57-2.77,1.42,0,2.66.41,3.72,1.23,1.16.92,1.92,2.2,2.3,3.86l1.76,7.53c.06.3.08.59.08.87,0,.75-.21,1.4-.62,1.95-.41.55-.99.91-1.74,1.08Z"/>
        <path class="cls-2" d="M229.91,151.33l-.25,3.02c-.09.97-.45,1.74-1.06,2.3-.56.49-1.23.73-2.02.73-.88,0-1.61-.3-2.21-.9-.65-.67-.93-1.56-.84-2.66l1.46-16.63c.09-.95.46-1.7,1.09-2.24.58-.52,1.27-.78,2.07-.78,1.01,0,1.79.39,2.35,1.18,1.06-.65,2.29-.92,3.67-.81,2.24.21,3.97,1.21,5.18,3.02,1.06,1.57,1.6,3.45,1.6,5.66,0,2.33-.69,4.37-2.07,6.1-1.51,1.89-3.42,2.83-5.71,2.83-1.16,0-2.24-.27-3.25-.81ZM232.99,140.25c-.73-.06-1.32.26-1.76.95-.41.62-.62,1.36-.62,2.24,0,.77.15,1.41.45,1.93.35.58.83.9,1.43.95.58.04,1.09-.21,1.54-.74.45-.53.71-1.23.78-2.09.07-.88-.06-1.62-.41-2.24-.35-.62-.82-.95-1.41-1.01Z"/>
        <path class="cls-2" d="M247.33,148.84c-.07.97-.41,1.72-.99,2.25-.59.53-1.28.8-2.09.8-.86,0-1.59-.29-2.18-.87-.65-.67-.94-1.54-.87-2.6l1.2-17.22c.07-.97.42-1.74,1.04-2.3.56-.5,1.24-.76,2.04-.76.86,0,1.59.29,2.18.87.65.67.94,1.54.87,2.6l-1.2,17.22Z"/>
        <path class="cls-2" d="M260.04,151.53c-1.01.34-2.02.5-3.02.5-1.81,0-3.44-.54-4.87-1.62-1.44-1.08-2.47-2.56-3.11-4.42-.34-.99-.5-2.02-.5-3.08,0-1.77.46-3.38,1.37-4.82.97-1.51,2.32-2.57,4.06-3.16.86-.3,1.73-.45,2.6-.45,1.81,0,3.48.58,5.01,1.74,1.46,1.08,2.44,2.4,2.97,3.95.15.41.22.8.22,1.18,0,1.16-.65,1.96-1.96,2.41l-6.64,2.3c.34.17.72.25,1.15.25.37,0,.78-.07,1.23-.22.58-.21,1.24-.72,1.97-1.54.74-.82,1.34-1.32,1.81-1.48.26-.07.52-.11.78-.11.75,0,1.4.27,1.97.8.57.53.85,1.16.85,1.89,0,1.14-.68,2.32-2.04,3.56-1.19,1.08-2.48,1.87-3.86,2.35ZM255.75,140.08c-.73.26-1.18.77-1.34,1.51l3.36-1.18c-.37-.32-.79-.48-1.26-.48-.24,0-.49.05-.76.14Z"/>
        <path class="cls-2" d="M271.55,149.57c-.3.8-.8,1.97-1.51,3.5-.88,1.6-1.86,2.45-2.94,2.52-.78.06-1.49-.18-2.13-.7-.63-.52-.98-1.19-1.04-1.99-.04-.67.35-1.88,1.15-3.61.41-.78.82-1.58,1.23-2.38.24-.5.63-.91,1.15-1.23.43-.26.86-.41,1.29-.45.78-.06,1.5.18,2.14.7.64.52.99,1.19,1.05,1.99.02.49-.11,1.04-.39,1.65Z"/>
        <path class="cls-2" d="M289.44,151.89c-.58.13-1.26.2-2.04.2-1.29,0-2.4-.2-3.33-.59-1.16-.47-1.85-1.19-2.07-2.16-.04-.15-.06-.32-.06-.5,0-.62.16-1.18.48-1.68.39-.65.94-1.05,1.65-1.2.26-.07.53-.11.81-.11.39,0,.91.09,1.57.28.65.19,1.14.28,1.46.28.19,0,.37-.02.56-.06.13-.02.25-.04.36-.06s.16-.07.14-.17c-.02-.06-.11-.08-.28-.08-.32,0-.53,0-.64-.03-.54-.06-1.4-.19-2.58-.39-2.67-.58-4.25-1.89-4.73-3.95-.09-.45-.14-.9-.14-1.34,0-1.38.48-2.59,1.44-3.64s2.22-1.75,3.77-2.1c.56-.13,1.18-.2,1.85-.2,1.27,0,2.37.23,3.3.7,1.16.6,1.74,1.47,1.74,2.63,0,.75-.24,1.4-.73,1.96-.49.56-1.1.84-1.85.84-.3,0-.77-.07-1.41-.22s-1.12-.22-1.41-.22c-.15,0-.3.02-.45.06-.21.06-.3.1-.28.14,0,.06.09.09.28.11.34,0,.54,0,.62.03.54.06,1.41.18,2.6.36,2.67.6,4.24,1.91,4.71,3.95.09.43.14.86.14,1.29,0,1.38-.5,2.61-1.5,3.7-1,1.08-2.32,1.81-3.96,2.18Z"/>
        <path class="cls-2" d="M297.81,135.21c-.91.04-1.72-.26-2.41-.9-.69-.63-1.05-1.4-1.09-2.3-.06-.88.23-1.66.87-2.34.63-.68,1.39-1.05,2.27-1.11.9-.04,1.69.25,2.38.85.69.61,1.06,1.35,1.12,2.23.04.91-.25,1.72-.85,2.42s-1.37,1.08-2.28,1.13ZM298.68,151.92c-.92.04-1.67-.24-2.27-.84-.6-.6-.92-1.36-.98-2.3l-.56-10.72c-.06-1.06.24-1.92.9-2.58.58-.58,1.3-.87,2.16-.87.8,0,1.49.25,2.07.76.62.58.95,1.36,1.01,2.35l.56,10.75c.06.93-.19,1.73-.73,2.38-.54.65-1.26,1.01-2.16,1.06Z"/>
        <path class="cls-2" d="M311.14,140.81c-.75.22-1.23.4-1.46.53-.54.28-.83.67-.87,1.18l-.42,6.16c-.07.99-.41,1.75-.99,2.28-.59.53-1.27.8-2.06.8-.88,0-1.62-.31-2.24-.94-.62-.63-.89-1.48-.81-2.56l.76-10.95c.06-.91.42-1.63,1.09-2.16.6-.47,1.31-.7,2.13-.7,1.03,0,1.82.35,2.38,1.04.67-.52,1.52-.76,2.55-.7.82.06,1.49.38,2.02.98.58.65.84,1.47.78,2.44-.06.77-.4,1.37-1.04,1.82-.36.26-.96.52-1.82.78Z"/>
      </g>
    </g>
  </g>
</svg>