<?xml version="1.0" encoding="UTF-8"?>
<svg id="Layer_2" data-name="Layer 2" xmlns="http://www.w3.org/2000/svg" viewBox="0 0 312.67 160.66">
  <defs>
    <style>
      .cls-1 {
        fill: #fff;
      }

      .cls-2 {
        fill: #6c42d8;
      }

      .cls-3 {
        fill: #8b5cf6;
      }
    </style>
  </defs>
  <g id="Layer_1-2" data-name="Layer 1">
    <g id="kiss">
      <g>
        <g id="stroke">
          <path class="cls-1" d="M258.04,145.66c-9.98,0-19.63-1.83-28.68-5.43l-.11-.04c-21.04-8.53-24.18-22.92-24.18-30.73s2.78-15.22,8.03-21.11c.67-.75,1.36-1.45,2.07-2.11-8.06-9.59-9.71-20.37-9.71-27.6,0-15.06,5.93-28.09,17.15-37.69,10.06-8.78,22.32-13.23,36.46-13.23,8.35,0,16.84,1.92,25.23,5.7,18.9,8.35,21.72,21.73,21.72,28.97s-2.07,13.29-6.01,18.69c6.68,6.78,12.66,17.25,12.66,33.02s-6.05,28.6-17.5,38.29c-10.29,8.8-22.79,13.27-37.13,13.27Z"/>
          <path class="cls-1" d="M83.69,149.24c-2.36,0-4.69-.25-6.95-.74-8.84-1.78-16.41-7.73-22.51-17.71l-.53-.85c-5.56,6.05-13.01,9.32-21.47,9.32-2.25,0-4.56-.25-6.86-.73-7.09-1.42-13.27-4.93-17.87-10.17-4.9-5.57-7.49-12.51-7.49-20.05,0-1.86.16-3.79.49-5.73l.04-.23L14.68,29.25c1.6-7.82,5.65-14.36,11.7-18.9l.22-.17c5.35-3.87,11.81-5.92,18.68-5.92,7.9,0,15.25,2.66,21.24,7.7,2.88,2.42,5.21,5.29,6.93,8.5l.8-.57c5.67-4.11,12.25-6.28,19.03-6.28,8.17,0,15.65,2.96,21.62,8.57,6.27,5.9,9.59,13.54,9.59,22.12,0,1.86-.16,3.79-.48,5.73l-.04.24-.05.24c-1.69,8.66-7.43,16.12-17.54,22.82l-8.51,5.64c-.99.66-1.27,2-.63,3l10.32,15.95c4.77,7.45,7.08,14.22,7.08,20.75,0,1.96-.2,3.94-.58,5.88-3.01,15.22-14.65,24.68-30.37,24.68Z"/>
          <path class="cls-1" d="M186.61,160.66c-9.98,0-19.63-1.83-28.68-5.43l-.11-.04c-21.04-8.53-24.18-22.92-24.18-30.73s2.78-15.22,8.03-21.11c.67-.75,1.36-1.45,2.07-2.11-8.06-9.59-9.71-20.37-9.71-27.6,0-15.06,5.93-28.09,17.15-37.69,10.06-8.78,22.32-13.23,36.46-13.23,8.35,0,16.84,1.92,25.23,5.7,18.9,8.35,21.72,21.73,21.72,28.97s-2.07,13.29-6.01,18.69c6.68,6.78,12.66,17.25,12.66,33.02s-6.05,28.6-17.51,38.29c-10.29,8.8-22.78,13.27-37.13,13.27Z"/>
          <path class="cls-1" d="M125.31,135.38c-8.06,0-15.49-2.8-21.49-8.1-6.61-5.83-10.1-13.82-10.1-23.11,0-1.42.07-2.88.2-4.33l.05-.58,11.5-72.51c1.36-8.19,5.28-15.07,11.33-19.9,5.49-4.48,12.23-6.85,19.52-6.85,8.06,0,15.49,2.8,21.49,8.09,6.61,5.84,10.11,13.83,10.11,23.12,0,1.42-.07,2.88-.2,4.33l-.05.58-11.51,72.52c-1.37,8.19-5.29,15.07-11.34,19.9-5.49,4.48-12.23,6.84-19.51,6.84Z"/>
        </g>
        <g id="text">
          <path class="cls-3" d="M258.04,128.66c-7.85,0-15.32-1.41-22.4-4.22-9.05-3.67-13.57-8.66-13.57-14.98,0-3.75,1.24-7.02,3.71-9.79,2.47-2.77,5.72-4.16,9.73-4.16,2.56,0,6.16.83,10.82,2.5,4.65,1.66,8.21,2.5,10.69,2.5,5.55,0,8.32-2.05,8.32-6.14,0-1.45-1.88-2.82-5.63-4.1-3.16-.85-8.06-2.35-14.72-4.48-15.02-5.12-22.53-14.16-22.53-27.14,0-10.15,3.75-18.43,11.26-24.83,6.91-6.06,15.36-9.09,25.34-9.09,5.97,0,12.07,1.41,18.3,4.22,7.76,3.41,11.65,7.89,11.65,13.44,0,3.76-1.2,7-3.58,9.73-2.48,2.99-5.76,4.48-9.86,4.48-1.96,0-4.8-.64-8.51-1.92-3.71-1.28-6.55-1.92-8.51-1.92-3.76,0-5.63,1.2-5.63,3.58,0,.85,1.83,1.88,5.5,3.07,12.97,4.1,21.46,7.51,25.47,10.24,7.85,5.46,11.78,13.61,11.78,24.45s-3.84,18.86-11.52,25.34c-7.17,6.14-15.87,9.22-26.11,9.22Z"/>
          <path class="cls-3" d="M186.61,143.66c-7.85,0-15.32-1.41-22.4-4.22-9.05-3.67-13.57-8.66-13.57-14.98,0-3.75,1.24-7.02,3.71-9.79,2.47-2.77,5.72-4.16,9.73-4.16,2.56,0,6.16.83,10.82,2.5,4.65,1.66,8.21,2.5,10.69,2.5,5.55,0,8.32-2.05,8.32-6.14,0-1.45-1.88-2.82-5.63-4.1-3.16-.85-8.06-2.35-14.72-4.48-15.02-5.12-22.53-14.16-22.53-27.14,0-10.15,3.75-18.43,11.26-24.83,6.91-6.06,15.36-9.09,25.34-9.09,5.97,0,12.07,1.41,18.3,4.22,7.76,3.41,11.65,7.89,11.65,13.44,0,3.76-1.2,7-3.58,9.73-2.48,2.99-5.76,4.48-9.86,4.48-1.96,0-4.8-.64-8.51-1.92s-6.55-1.92-8.51-1.92c-3.76,0-5.63,1.2-5.63,3.58,0,.85,1.83,1.88,5.5,3.07,12.97,4.1,21.46,7.51,25.47,10.24,7.85,5.46,11.78,13.61,11.78,24.45s-3.84,18.86-11.52,25.34c-7.17,6.14-15.87,9.22-26.11,9.22Z"/>
          <path class="cls-3" d="M139.39,105.83c-.68,4.1-2.43,7.25-5.25,9.47-2.48,2.05-5.42,3.07-8.83,3.07-3.93,0-7.34-1.28-10.24-3.84-2.9-2.56-4.35-6.02-4.35-10.37,0-.94.04-1.88.13-2.82l11.39-71.81c.68-4.1,2.43-7.25,5.25-9.47,2.47-2.05,5.42-3.07,8.83-3.07,3.92,0,7.34,1.28,10.24,3.84,2.9,2.56,4.35,6.02,4.35,10.37,0,.94-.04,1.88-.13,2.82l-11.39,71.81Z"/>
          <path class="cls-3" d="M97,59.15l-24.32,16.13,20.61,31.87c2.9,4.52,4.35,8.36,4.35,11.52,0,.85-.09,1.71-.26,2.56-1.45,7.34-6.02,11.01-13.7,11.01-1.2,0-2.35-.13-3.46-.38-4.1-.77-7.94-4.1-11.52-9.98l-19.33-31.1c-.6,4.18-1.24,8.36-1.92,12.54-1.11,5.63-2.65,9.94-4.61,12.93-2.56,4.01-6.1,6.02-10.62,6.02-1.11,0-2.26-.13-3.46-.38-3.5-.68-6.34-2.26-8.51-4.74-2.18-2.47-3.26-5.42-3.26-8.83,0-.94.09-1.92.26-2.94l14.08-72.7c.77-3.75,2.52-6.66,5.25-8.7,2.47-1.79,5.38-2.69,8.7-2.69,3.92,0,7.36,1.24,10.3,3.71,2.94,2.48,4.42,5.8,4.42,9.98,0,1.02-.13,2.09-.38,3.2l-2.94,15.23,27.52-19.71c2.82-2.05,5.84-3.07,9.09-3.07,3.84,0,7.17,1.32,9.98,3.97,2.82,2.65,4.22,5.89,4.22,9.73,0,.94-.09,1.92-.26,2.94-.77,3.93-4.18,7.89-10.24,11.9Z"/>
        </g>
      </g>
    </g>
    <g id="shadow">
      <path class="cls-2" d="M75.34,79.4c-6.19-.56-12.41-.85-18.62-.95-11.59-.2-23.24.24-34.66,2.05l-4.81,24.86c-.17,1.03-.25,2.01-.25,2.95,0,3.41,1.09,6.36,3.26,8.83,2.18,2.48,5.01,4.05,8.51,4.74,1.2.25,2.35.38,3.46.38,4.52,0,8.06-2,10.62-6.02,1.97-2.98,3.5-7.29,4.61-12.92.68-4.18,1.32-8.37,1.92-12.55l19.33,31.11c3.58,5.88,7.42,9.21,11.52,9.98,1.11.26,2.26.38,3.46.38,7.68,0,12.24-3.67,13.69-11,.17-.86.26-1.71.26-2.56,0-3.16-1.45-7-4.35-11.52l-17.95-27.76Z"/>
      <path class="cls-2" d="M113.14,86.93l-2.29,14.43c-.09.94-.13,1.87-.13,2.81,0,4.35,1.45,7.81,4.35,10.37s6.31,3.84,10.24,3.84c3.41,0,6.36-1.02,8.83-3.07,2.82-2.22,4.57-5.38,5.25-9.47l1.2-7.57c-8.87-3.84-17.67-7.99-26.77-11.11-.23-.08-.45-.15-.68-.23Z"/>
      <path class="cls-2" d="M289.7,75.04c-1.47.18-2.94.41-4.4.67-13.2,2.38-28.43,4.9-41.54,9.64.4.15.81.29,1.22.43,6.66,2.13,11.56,3.63,14.72,4.48,3.75,1.28,5.63,2.65,5.63,4.1,0,4.09-2.77,6.14-8.32,6.14-2.47,0-6.04-.83-10.69-2.5-4.65-1.66-8.25-2.49-10.81-2.49-4.01,0-7.26,1.39-9.73,4.16-.84.93-1.52,1.93-2.07,2.98-.42-2.5-1.1-4.82-2.04-6.96-9.58,4.87-18.99,9.48-28.96,11.74.79.62,1.19,1.27,1.19,1.93,0,4.09-2.77,6.14-8.32,6.14-2.48,0-6.04-.83-10.69-2.5-4.65-1.66-8.25-2.49-10.81-2.49-4.02,0-7.26,1.39-9.73,4.16-2.48,2.77-3.71,6.04-3.71,9.79,0,6.32,4.52,11.31,13.56,14.98,7.09,2.81,14.55,4.22,22.4,4.22,10.24,0,18.95-3.07,26.12-9.22,6.03-5.09,9.68-11.4,10.98-18.92,2.04,3.54,6.01,6.51,11.94,8.92,7.08,2.81,14.54,4.22,22.4,4.22,10.24,0,18.94-3.07,26.11-9.22,7.68-6.48,11.52-14.93,11.52-25.34,0-7.72-1.99-14.07-5.97-19.06Z"/>
    </g>
  </g>
</svg>